<svg width="251" height="194" viewBox="0 0 251 194" fill="none" xmlns="http://www.w3.org/2000/svg">
<path d="M128.957 70.7006C128.957 106.311 100.089 135.179 64.4783 135.179C28.8678 135.179 0 106.311 0 70.7006C0 35.0901 28.8678 6.22229 64.4783 6.22229C100.089 6.22229 128.957 35.0901 128.957 70.7006Z" fill="#F79944"/>
<path d="M71.2478 86.6616L71.3196 86.7064L71.3243 86.6243L71.2478 86.6616ZM71.1797 87.0441C69.355 90.0376 67.0015 92.4248 63.98 94.1365C60.9277 95.866 57.5909 96.6384 54.0834 96.9994C55.242 98.5209 59.5284 101.337 62.2869 102.482C64.3018 103.319 66.3569 103.847 68.564 103.627C71.8746 103.297 73.6051 101.154 73.106 97.8791C72.8775 96.38 72.4726 94.7569 71.3709 93.8147C70.6349 93.1841 70.4754 92.3949 70.6442 92.0003C71.3373 90.3828 70.9381 88.7139 71.1797 87.0441ZM98.2742 75.8052C97.1268 76.8248 96.0922 77.794 94.9999 78.6933C94.4952 79.1075 94.318 79.5403 94.4411 80.1634C94.693 81.4386 94.846 82.7372 95.1603 83.9965C97.0298 91.4761 100.778 97.7942 106.785 102.716C107.345 103.174 107.658 103.217 108.179 102.678C109.253 101.568 110.387 100.513 111.537 99.4808C112.081 98.9929 112.135 98.7075 111.546 98.1627C107.029 93.9873 103.758 88.9313 101.193 83.378C100.07 80.9489 99.165 78.4377 98.2742 75.8052ZM75.3681 117.533C73.7301 116.697 72.1685 116.002 70.7179 115.125C69.7244 114.523 68.9175 114.654 68.0117 115.19C65.5975 116.62 64.0621 118.799 62.91 121.261C60.2393 126.969 59.5228 133.092 59.2103 139.294C59.1824 139.85 59.4156 140.108 59.8605 140.302C61.1992 140.888 62.5518 141.446 63.8662 142.08C64.5387 142.406 64.7664 142.334 64.8326 141.544C65.1516 137.727 65.8438 133.974 66.9819 130.314C68.5369 125.316 70.6312 120.653 75.3681 117.533ZM51.7541 64.9581C49.3278 66.4133 47.0675 67.5896 44.644 68.4357C43.7699 68.7417 42.9508 68.8387 42.0469 68.5803C40.4088 68.1101 38.7605 68.057 37.1345 68.6941C35.3267 69.4021 34.5487 70.6438 34.7157 72.5841C34.9442 75.2352 37.4722 78.0972 40.2829 78.9386C42.6477 79.6466 44.9527 79.4097 47.213 78.5431C47.783 78.3248 47.9966 78.3621 48.4108 78.933C51.2485 82.8444 54.8512 85.781 59.7551 86.5292C68.2058 87.8184 76.1172 81.7474 77.5725 73.0542C78.2852 68.8014 77.2413 64.875 75.7301 60.9291C74.815 58.5401 73.0304 57.903 70.9241 57.541C69.9409 57.3722 69.092 57.7957 68.5323 58.6791C67.9921 59.5317 67.8158 60.3414 68.4772 61.2687C69.0155 62.0233 69.4101 62.8871 69.8224 63.7248C70.7916 65.6922 71.8047 67.6531 72.0295 69.8816C72.1797 71.3788 71.3905 72.2884 69.9035 72.4292C69.0173 72.5132 68.2123 72.2874 67.4837 71.7744C66.9464 71.3956 66.4791 70.9339 66.9082 70.2632C67.3755 69.5318 67.9418 69.8882 68.4586 70.2939C68.9334 70.6652 69.495 70.9096 70.0397 70.5887C70.6638 70.2212 70.2627 69.6046 70.1377 69.1521C69.452 66.6652 68.2962 64.3713 66.9576 62.1894C65.9641 60.5709 66.1488 59.0914 67.1106 57.6278C68.1069 56.111 69.5901 55.61 71.3513 55.8311C71.7851 55.8852 72.2179 55.944 72.6937 56.0065C70.8522 52.4551 65.91 50.6109 62.3848 52.1165C62.1357 52.2229 61.8018 52.2583 61.6908 52.5661C60.9529 54.6091 59.9426 56.5195 58.6684 58.4142C59.2355 58.4142 59.6003 58.4114 59.965 58.4142C60.5928 58.4179 61.1609 58.5886 61.1712 59.319C61.1824 60.1026 60.5844 60.1455 59.9631 60.152C57.229 60.1791 55.4025 61.6231 54.1776 63.9515C53.6842 64.889 53.3689 65.8965 53.1011 66.9226C52.9612 67.4609 52.575 67.7669 52.0013 67.5989C51.4976 67.4516 51.3222 67.0402 51.4117 66.5364C51.4892 66.1017 51.5974 65.6726 51.7541 64.9581ZM175.105 164.467H136.738C133.44 164.467 130.14 164.472 126.842 164.462C126.317 164.46 125.961 164.446 125.902 165.183C125.629 168.631 125.361 172.083 124.935 175.514C124.365 180.103 127.595 183.582 132.445 183.563C155.416 183.474 178.388 183.524 201.359 183.524C205.758 183.524 210.157 183.542 214.555 183.518C218.711 183.495 222.464 180.411 222.977 176.433C223.436 172.884 223.624 169.3 224.039 165.743C224.175 164.576 223.779 164.443 222.759 164.445C206.875 164.476 190.99 164.467 175.105 164.467ZM172.816 187.159C186.629 187.159 200.441 187.164 214.255 187.157C221.122 187.154 225.943 182.947 226.763 176.151C227.187 172.635 227.44 169.098 227.772 165.571C228.548 157.342 229.335 149.115 230.098 140.885C230.869 132.573 231.602 124.257 232.377 115.946C233.315 105.89 234.29 95.8399 235.227 85.7848C235.839 79.2166 236.395 72.6438 237.009 66.0756C237.949 56.0214 238.928 45.97 239.87 35.9158C240.569 28.4558 241.193 20.9893 241.931 13.534C242.565 7.15336 238.458 2.52085 232.031 2.51899C221.844 2.51525 211.658 2.51805 201.472 2.51805C183.706 2.51805 165.941 2.51152 148.176 2.52085C142.381 2.52365 137.347 6.62817 136.485 12.3185C135.875 16.3372 135.62 20.411 135.238 24.4632C134.449 32.8551 133.681 41.2498 132.903 49.6426C132.287 56.2919 131.665 62.9403 131.051 69.5887C130.62 74.252 130.205 78.9162 129.769 83.5786C129.155 90.1468 128.53 96.714 127.91 103.281C127.446 108.187 126.981 113.092 126.52 117.997C126.167 121.767 125.829 125.539 125.461 129.307C125.395 129.976 125.568 130.284 126.288 130.285C126.917 130.286 127.427 130.44 127.486 129.454C127.627 127.098 127.93 124.753 128.149 122.401C128.929 114.049 129.7 105.695 130.478 97.3437C131.412 87.3296 132.353 77.3164 133.283 67.3032C134.054 58.9907 134.814 50.6771 135.581 42.3645C136.449 32.9587 137.348 23.5547 138.179 14.146C138.678 8.50039 143.068 4.3968 148.747 4.39307C152.903 4.39027 157.058 4.39214 161.214 4.39214C163.661 4.39214 163.658 4.39214 163.402 6.78209C163.358 7.18694 163.339 7.5946 163.322 8.00132C163.133 12.4948 166.141 15.7943 170.656 15.813C182.757 15.8643 194.859 15.8708 206.961 15.8046C210.439 15.785 213.071 14.0639 214.862 11.0676C215.887 9.35301 215.986 7.42669 216.11 5.52555C216.167 4.63934 216.409 4.36042 217.324 4.36975C222.051 4.41826 226.777 4.38841 231.503 4.39587C232.528 4.39774 233.533 4.57684 234.49 4.94532C238.371 6.44067 240.311 10.034 239.854 14.6021C239.027 22.8671 238.251 31.1378 237.478 39.4084C236.598 48.8142 235.75 58.2229 234.876 67.6288C234.04 76.6298 233.181 85.6281 232.345 94.6291C231.47 104.035 230.615 113.443 229.74 122.85C228.904 131.851 228.053 140.85 227.209 149.85C226.393 158.566 225.622 167.287 224.747 175.998C224.205 181.407 219.883 185.271 214.422 185.275C186.919 185.294 159.415 185.296 131.912 185.272C126.489 185.267 122.905 181.414 123.212 176.007C123.357 173.446 123.63 170.893 123.868 168.339C124.135 165.462 124.371 162.58 124.739 159.716C124.897 158.488 124.093 158.683 123.429 158.531C122.536 158.327 122.773 159.021 122.729 159.43C122.521 161.373 122.334 163.319 122.157 165.266C121.79 169.281 121.322 173.29 121.107 177.313C120.888 181.417 123.102 184.784 126.719 186.364C128.249 187.033 129.861 187.16 131.499 187.159H172.816ZM139.304 134.255C141.199 133.115 143.165 132.143 144.85 130.726C146.131 129.651 147.383 128.548 148.027 126.935C148.905 124.742 147.482 122.827 145.156 123.091C144.221 123.197 143.332 123.478 142.465 123.838C138.139 125.636 134.356 128.311 130.766 131.255C129.714 132.118 128.717 132.363 127.441 132.203C122.315 131.562 117.204 130.853 112.135 129.829C100.618 127.503 89.4989 123.968 78.8206 119.068C77.759 118.581 76.9493 118.704 76.0267 119.291C74.1219 120.502 72.7049 122.157 71.5845 124.072C68.2589 129.757 67.1591 136.067 66.4557 142.488C66.3802 143.172 66.7832 143.304 67.2515 143.486C70.5435 144.768 73.8672 145.964 77.2338 147.033C93.2965 152.133 109.791 155.162 126.488 157.162C134.654 158.141 142.847 158.897 151.076 159.045C154.365 159.104 157.681 159.038 160.839 157.868C162.89 157.106 163.693 155.963 163.675 153.957C163.667 153.033 163.528 152.104 162.879 151.464C162.3 150.89 161.579 151.539 160.924 151.616C157.426 152.026 153.933 151.881 150.438 151.619C149.746 151.567 149.005 151.493 149.05 150.634C149.097 149.756 149.847 149.753 150.536 149.84C153.211 150.182 155.9 150.203 158.586 150.086C160.173 150.017 161.745 149.771 163.222 149.13C165.374 148.195 166.107 145.228 164.696 143.343C164.4 142.947 164.099 143.009 163.744 143.075C158.961 143.948 154.172 143.587 149.384 143.142C148.776 143.086 148.052 143.033 148.154 142.152C148.263 141.218 148.975 141.36 149.655 141.419C153.999 141.791 158.342 142.139 162.694 141.511C164.336 141.273 165.37 140.5 165.575 139.311C165.795 138.033 165.096 136.895 163.595 136.14C162.209 135.442 160.716 135.36 159.196 135.382C152.558 135.481 145.955 134.914 139.304 134.255ZM15.9226 190.887C16.5802 190.692 17.1175 190.546 17.6455 190.373C27.2949 187.219 36.9424 184.059 46.5917 180.906C58.0937 177.147 69.5966 173.389 81.1033 169.647C81.6406 169.471 81.8552 169.206 81.9494 168.638C82.871 163.103 83.8132 157.571 84.7983 152.046C84.9335 151.287 84.664 151.038 84.0259 150.854C81.5287 150.135 79.0221 149.439 76.5473 148.645C66.9268 145.559 57.6086 141.777 49.0162 136.384C47.1934 135.24 45.449 133.972 43.6803 132.745C43.1906 132.406 42.7372 131.946 43.1906 131.33C43.6729 130.673 44.2587 130.957 44.7867 131.356C44.8837 131.43 44.9742 131.514 45.0721 131.586C48.6776 134.248 52.5097 136.539 56.4715 138.629C57.4155 139.126 57.4902 138.833 57.5349 137.963C57.6758 135.24 57.9211 132.518 58.4641 129.841C59.7533 123.482 61.4342 117.319 67.3839 113.389C66.9735 113.14 66.6358 112.931 66.2925 112.732C61.7113 110.079 57.2476 107.249 53.0946 103.953C52.5675 103.536 51.9873 103.069 52.6039 102.354C53.1627 101.708 53.6898 102.178 54.1823 102.558C63.9063 110.078 74.6965 115.678 86.0399 120.289C86.6407 120.533 87.0735 120.488 87.5875 120.071C89.4523 118.559 91.372 117.115 93.2424 115.61C97.6492 112.061 101.953 108.392 106.177 104.508C98.5158 98.3763 94.1724 90.4005 92.706 80.8379C92.5614 80.8482 92.5083 80.836 92.4812 80.8565C86.6379 85.4359 80.4578 89.4788 73.689 92.5694C73.0808 92.8473 73.1648 93.0778 73.4101 93.561C73.814 94.3558 74.1685 95.1832 74.4549 96.0274C75.8868 100.257 74.4512 103.577 70.606 104.959C68.8727 105.583 67.091 105.602 65.3055 105.248C60.9576 104.384 57.34 102.069 53.9164 99.4043C53.4071 99.0079 53.0302 98.8838 52.4006 99.1487C48.7308 100.696 45.1384 102.405 41.5618 104.155C37.2409 106.271 33.8985 109.07 32.0114 113.821C27.3117 125.66 24.0663 137.879 21.5392 150.318C19.6997 159.373 18.3153 168.504 17.2836 177.685C16.7929 182.048 16.3806 186.42 15.9226 190.887ZM144.925 132.926C145.611 133.246 146.19 133.182 146.752 133.212C151.551 133.472 156.35 133.702 161.159 133.713C166.491 133.727 169.18 139.561 168.016 143.287C167.594 144.637 167.077 145.94 166.946 147.383C166.843 148.515 166.113 149.437 165.151 150.034C164.534 150.416 164.593 150.734 164.833 151.294C166.427 155.01 165.113 158.137 161.345 159.557C158.558 160.607 155.617 160.812 152.688 160.807C144.818 160.796 136.991 160.068 129.177 159.205C126.496 158.909 126.551 158.862 126.257 161.335C126.125 162.438 126.376 162.75 127.542 162.749C159.325 162.715 191.108 162.714 222.891 162.753C224.097 162.755 224.371 162.318 224.464 161.266C225.165 153.397 225.911 145.533 226.637 137.667C227.511 128.219 228.377 118.772 229.25 109.324C230.029 100.89 230.813 92.4574 231.596 84.0245C232.366 75.753 233.136 67.4814 233.908 59.2108C234.672 51.0214 235.444 42.8338 236.207 34.6443C236.842 27.8317 237.431 21.0154 238.109 14.2085C238.585 9.41365 235.732 6.14402 230.92 6.13096C227.13 6.12164 223.341 6.1291 219.552 6.13003C217.794 6.13003 217.794 6.13003 217.641 7.85579C217.177 13.0611 212.578 17.4902 207.38 17.5135C194.993 17.5695 182.605 17.5723 170.218 17.5051C166.722 17.4865 164.113 15.7393 162.467 12.632C161.533 10.868 161.476 8.95842 161.656 7.03209C161.72 6.35858 161.558 6.10764 160.823 6.11417C156.626 6.14776 152.429 6.07779 148.233 6.14776C144.145 6.21585 140.582 9.33062 140.113 13.381C139.491 18.7598 139.058 24.1601 138.548 29.5519C137.773 37.7395 136.99 45.9271 136.231 54.1175C135.619 60.7267 135.052 67.3396 134.435 73.9488C133.667 82.1793 132.862 90.4061 132.087 98.6357C131.533 104.514 131 110.393 130.461 116.272C130.042 120.834 129.629 125.395 129.194 130.166C131.243 128.583 133.142 127.126 135.15 125.824C137.782 124.119 140.462 122.504 143.513 121.641C146.578 120.772 148.693 121.544 149.678 123.932C150.368 125.604 150.04 127.202 149.119 128.705C148.082 130.398 146.576 131.641 144.925 132.926ZM132.249 32.4624C132.143 32.579 132.023 32.6872 131.932 32.8159C121.989 47.0185 112.002 61.1884 100.159 73.9218C99.7919 74.3164 99.7975 74.6391 99.9449 75.1205C100.733 77.6886 101.684 80.1942 102.815 82.628C105.286 87.9452 108.396 92.824 112.713 96.8604C113.137 97.2569 113.424 97.6599 114.064 97.0004C118.969 91.9369 123.697 86.7251 127.789 80.9666C128.094 80.5375 128.344 80.1233 128.392 79.5459C128.715 75.6102 129.082 71.6774 129.446 67.7454C130.536 55.9916 131.63 44.2386 132.721 32.4857C133.284 26.5454 133.845 20.605 134.408 14.6656C133.602 15.59 133.277 16.6665 133.029 17.7719C132.045 22.1535 132.168 26.5901 132.382 31.0305C132.405 31.5184 132.504 32.0044 132.249 32.4624ZM127.413 84.5599C125.6 86.7381 123.801 88.9275 121.964 91.0843C121.621 91.4873 121.611 91.7111 121.996 92.0628C122.832 92.8268 123.632 93.63 124.446 94.4173C125.15 95.2671 125.855 96.1179 126.727 97.1702C127.134 92.8128 127.513 88.7438 127.891 84.6738C127.902 84.5543 127.934 84.3752 127.871 84.3202C127.546 84.031 127.525 84.3976 127.413 84.5599ZM122.719 42.7769C125.371 39.3207 127.781 35.6919 130.291 32.134C130.628 31.6564 130.612 31.1517 130.58 30.6182C130.369 26.9941 130.338 23.3737 130.868 19.7682C131.201 17.5014 131.464 15.0928 133.029 13.3866C134.368 11.9277 134.987 10.2262 135.846 8.56383C138.438 3.55165 142.55 0.805349 148.281 0.802551C178.674 0.788558 209.066 0.793223 239.459 0.79882C244.869 0.799753 248.875 3.61321 250.519 8.54144C251.004 9.99294 251.074 11.5051 250.939 13.0126C250.226 20.9613 249.49 28.9082 248.764 36.8561C248.173 43.303 247.591 49.7508 246.994 56.1968C246.222 64.5476 245.437 72.8984 244.66 81.2493C243.887 89.56 243.117 97.8717 242.343 106.183C241.404 116.278 240.46 126.371 239.522 136.465C238.746 144.816 237.973 153.169 237.198 161.521C236.731 166.548 236.291 171.578 235.784 176.601C235.09 183.473 229.243 188.885 222.379 188.891C191.783 188.919 161.186 188.925 130.59 188.887C123.374 188.879 118.55 182.999 119.391 175.628C119.964 170.613 120.364 165.578 120.801 160.55C121.009 158.154 120.955 158.225 118.502 157.884C111.086 156.856 103.713 155.576 96.4047 153.942C93.4682 153.286 90.5474 152.562 87.6323 151.816C86.7824 151.599 86.5362 151.86 86.4037 152.68C85.5203 158.143 84.5576 163.592 83.6975 169.058C83.5044 170.281 83.0483 170.885 81.7964 171.29C65.3195 176.618 48.866 182.021 32.4069 187.406C26.6139 189.302 20.8172 191.191 15.0298 193.106C14.1903 193.384 14.0336 193.216 14.0998 192.322C14.6455 184.97 15.4216 177.642 16.4571 170.346C16.6623 168.905 16.3302 168.358 15.0709 167.737C7.88798 164.195 4.76574 158.117 4.61182 150.335C4.46816 143.141 6.60438 136.453 9.3712 129.93C11.6333 124.597 14.5671 119.627 17.6633 114.746C18.1875 114.022 18.7174 113.303 19.2351 112.575C22.5607 107.903 26.377 103.589 29.294 98.6207C32.7362 92.7578 35.5767 86.6756 36.3677 79.8146C36.4442 79.1504 36.2997 78.7073 35.822 78.2054C33.4004 75.6597 31.9899 72.8303 33.6765 69.2818C33.8397 68.9376 33.6756 68.6493 33.5897 68.3434C33.3584 67.5215 33.0851 66.7109 32.9004 65.8797C31.1634 58.0933 32.2362 51.1566 38.8855 45.8571C43.0133 42.567 47.3968 39.8477 52.7756 39.205C55.0517 38.9335 57.2598 39.1518 59.1796 40.5558C59.6572 40.9046 60.063 40.8002 60.5462 40.7022C65.0285 39.7955 68.7561 41.0371 71.5855 44.6836C73.6564 47.3515 74.7301 50.471 75.2842 53.7453C75.6937 56.166 76.3439 58.4561 77.4157 60.6754C78.5146 62.9496 79.1807 65.3909 79.4764 67.9198C79.5893 68.8825 79.3458 69.8975 79.8066 70.8061C82.0977 75.3294 85.5987 78.281 90.6967 79.1522C91.3021 79.2558 91.789 79.1522 92.2601 78.7259C93.8002 77.3351 95.4327 76.0393 96.9178 74.5934C106.769 65.0047 114.579 53.7574 122.719 42.7769Z" fill="#262222"/>
<path d="M15.9229 190.887C16.3809 186.42 16.7932 182.048 17.2839 177.685C18.3156 168.504 19.6999 159.373 21.5395 150.318C24.0666 137.879 27.312 125.66 32.0116 113.821C33.8988 109.07 37.2412 106.271 41.5621 104.155C45.1386 102.405 48.731 100.696 52.4008 99.1487C53.0305 98.8838 53.4074 99.0088 53.9167 99.4043C57.3403 102.069 60.9578 104.384 65.3058 105.248C67.0913 105.602 68.873 105.583 70.6063 104.959C74.4514 103.577 75.8871 100.257 74.4552 96.0265C74.1688 95.1832 73.8143 94.3548 73.4104 93.561C73.1651 93.0778 73.0811 92.8473 73.6893 92.5694C80.458 89.4788 86.6381 85.4359 92.4824 80.8565C92.5085 80.836 92.5617 80.8482 92.7054 80.8379C94.1727 90.4005 98.5161 98.3763 106.178 104.508C101.954 108.392 97.6494 112.061 93.2427 115.61C91.3723 117.115 89.4525 118.559 87.5878 120.071C87.0738 120.487 86.6409 120.533 86.0402 120.289C74.6968 115.678 63.9066 110.077 54.1826 102.559C53.69 102.178 53.163 101.707 52.6042 102.354C51.9876 103.069 52.5678 103.536 53.0949 103.954C57.2479 107.249 61.7116 110.079 66.2918 112.732C66.6361 112.931 66.9738 113.14 67.3842 113.389C61.4345 117.319 59.7535 123.481 58.4643 129.841C57.9214 132.518 57.6761 135.24 57.5352 137.963C57.4904 138.833 57.4158 139.127 56.4718 138.629C52.51 136.539 48.6779 134.247 45.0724 131.586C44.9745 131.514 44.884 131.43 44.787 131.357C44.259 130.957 43.6731 130.673 43.1909 131.33C42.7375 131.946 43.1909 132.406 43.6797 132.745C45.4493 133.973 47.1937 135.24 49.0165 136.384C57.6089 141.777 66.9271 145.559 76.5476 148.645C79.0224 149.439 81.5289 150.135 84.0262 150.854C84.6642 151.038 84.9338 151.288 84.7986 152.046C83.8135 157.57 82.8713 163.103 81.9497 168.638C81.8554 169.206 81.6409 169.471 81.1036 169.647C69.5969 173.389 58.094 177.147 46.592 180.906C36.9427 184.059 27.2952 187.22 17.6458 190.374C17.1178 190.545 16.5805 190.692 15.9229 190.887Z" fill="#FDFDFD"/>
<path d="M139.304 134.255C145.956 134.914 152.559 135.481 159.197 135.382C160.716 135.36 162.209 135.442 163.595 136.14C165.096 136.895 165.796 138.033 165.575 139.311C165.37 140.5 164.336 141.273 162.694 141.511C158.343 142.139 153.998 141.791 149.655 141.419C148.975 141.36 148.264 141.218 148.155 142.152C148.052 143.033 148.776 143.086 149.385 143.142C154.172 143.587 158.962 143.948 163.744 143.075C164.1 143.009 164.4 142.947 164.697 143.344C166.106 145.228 165.375 148.195 163.222 149.13C161.745 149.771 160.173 150.017 158.587 150.086C155.9 150.203 153.212 150.182 150.536 149.841C149.847 149.753 149.097 149.756 149.05 150.634C149.005 151.494 149.747 151.567 150.437 151.619C153.934 151.881 157.426 152.026 160.924 151.616C161.579 151.539 162.3 150.89 162.88 151.464C163.528 152.104 163.667 153.033 163.675 153.957C163.693 155.963 162.89 157.106 160.839 157.868C157.682 159.038 154.365 159.104 151.077 159.045C142.848 158.897 134.653 158.141 126.488 157.162C109.791 155.162 93.2967 152.133 77.234 147.033C73.8674 145.964 70.5437 144.768 67.2517 143.486C66.7834 143.304 66.3804 143.173 66.4559 142.489C67.1593 136.067 68.2601 129.757 71.5847 124.072C72.7041 122.157 74.1221 120.502 76.0269 119.291C76.9495 118.704 77.7592 118.581 78.8208 119.068C89.4982 123.968 100.619 127.503 112.135 129.829C117.206 130.853 122.316 131.563 127.442 132.203C128.718 132.363 129.715 132.118 130.767 131.255C134.355 128.311 138.14 125.636 142.465 123.838C143.332 123.478 144.222 123.197 145.156 123.091C147.481 122.827 148.905 124.741 148.028 126.935C147.382 128.548 146.131 129.651 144.85 130.726C143.166 132.143 141.199 133.115 139.304 134.255ZM132.722 32.4857C131.63 44.2386 130.536 55.9916 129.446 67.7454C129.083 71.6774 128.715 75.6102 128.392 79.5459C128.345 80.1233 128.095 80.5375 127.79 80.9666C123.697 86.7251 118.97 91.9369 114.064 97.0004C113.424 97.6599 113.137 97.2569 112.713 96.8605C108.396 92.824 105.287 87.9453 102.815 82.628C101.684 80.1942 100.733 77.6886 99.9451 75.1205C99.7977 74.6391 99.7921 74.3164 100.16 73.9218C112.002 61.1884 121.989 47.0185 131.932 32.816C132.023 32.6872 132.143 32.579 132.25 32.4624C132.407 32.4699 132.565 32.4773 132.722 32.4857Z" fill="#FDFDFD"/>
<path d="M73.6743 62.1651C73.7266 61.1371 73.4076 60.4114 72.8861 59.7677C72.6473 59.472 72.3255 59.2892 71.9299 59.3853C71.4831 59.4944 71.4579 59.8815 71.4309 60.2472C71.3684 61.0793 71.5577 61.848 72.0531 62.5243C72.3432 62.9207 72.6725 63.3284 73.2378 63.1297C73.7816 62.9385 73.6389 62.4086 73.6743 62.1651ZM61.4354 65.5402C61.4224 65.3676 61.4345 65.1997 61.3953 65.0448C61.1761 64.1838 60.9634 62.9487 59.9335 63.1558C58.8216 63.3806 59.2535 64.5877 59.4018 65.445C59.4354 65.6391 59.5305 65.8275 59.6238 66.0047C59.8906 66.5066 60.1556 67.1381 60.844 66.9684C61.5669 66.7902 61.3785 66.0738 61.4354 65.5402ZM41.6031 72.4218C41.9268 72.9246 42.1582 73.211 42.3093 73.5347C42.5845 74.1261 42.9763 74.5431 43.6293 74.1811C44.2701 73.8266 44.1031 73.2306 43.8541 72.6746C42.772 70.2622 39.8279 69.3247 37.5798 70.6699C37.1143 70.9479 36.784 71.2884 37.0172 71.8527C37.2505 72.4199 37.7383 72.4479 38.2514 72.2875C38.4827 72.2156 38.6982 72.0925 38.9268 72.0057C39.4958 71.7902 39.9035 71.5925 39.7281 72.6018C39.3783 74.6158 40.7533 76.656 42.6824 77.2455C43.174 77.3948 43.6041 77.3136 43.8224 76.836C44.0257 76.3901 43.9492 75.9657 43.4613 75.6886C43.1087 75.489 42.7598 75.2772 42.4408 75.03C41.6693 74.4311 41.1143 73.7362 41.6031 72.4218ZM51.7543 64.9581C51.5976 65.6726 51.4894 66.1018 51.412 66.5365C51.3224 67.0402 51.4978 67.4516 52.0015 67.599C52.5752 67.7669 52.9614 67.4609 53.1014 66.9227C53.3691 65.8965 53.6844 64.8891 54.1779 63.9506C55.4027 61.6232 57.2292 60.1791 59.9634 60.1521C60.5847 60.1455 61.1826 60.1026 61.1714 59.319C61.1612 58.5886 60.5931 58.4179 59.9652 58.4142C59.6005 58.4123 59.2358 58.4142 58.6686 58.4142C59.9429 56.5196 60.9531 54.61 61.691 52.5662C61.802 52.2574 62.136 52.2229 62.385 52.1165C65.9103 50.6109 70.8525 52.4552 72.6939 56.0065C72.2182 55.944 71.7853 55.8852 71.3516 55.8311C69.5903 55.61 68.1071 56.111 67.1108 57.6278C66.1491 59.0914 65.9653 60.5709 66.9579 62.1894C68.2965 64.3713 69.4523 66.6652 70.1379 69.1522C70.2629 69.6046 70.6641 70.2212 70.04 70.5887C69.4952 70.9096 68.9336 70.6652 68.4588 70.294C67.942 69.8882 67.3758 69.5318 66.9084 70.2632C66.4793 70.9339 66.9467 71.3956 67.484 71.7744C68.2125 72.2875 69.0176 72.5132 69.9038 72.4292C71.3907 72.2884 72.1799 71.3789 72.0297 69.8816C71.8049 67.6531 70.7919 65.6922 69.8226 63.7249C69.4103 62.8872 69.0157 62.0234 68.4775 61.2687C67.8161 60.3414 67.9924 59.5317 68.5325 58.6791C69.0913 57.7957 69.9411 57.3722 70.9243 57.541C73.0307 57.9039 74.8152 58.5401 75.7303 60.9291C77.2415 64.8751 78.2854 68.8014 77.5736 73.0542C76.1175 81.7474 68.206 87.8175 59.7554 86.5292C54.8514 85.7811 51.2487 82.8445 48.411 78.933C47.9968 78.3621 47.7832 78.3248 47.2133 78.5431C44.952 79.4097 42.6479 79.6467 40.2831 78.9386C37.4725 78.0972 34.9445 75.2352 34.7159 72.5841C34.5489 70.6438 35.3269 69.4022 37.1348 68.6932C38.7607 68.057 40.4091 68.1111 42.0472 68.5803C42.9501 68.8387 43.7701 68.7417 44.6442 68.4357C47.0677 67.5896 49.328 66.4133 51.7543 64.9581ZM75.3684 117.533C70.6314 120.653 68.5372 125.316 66.9821 130.314C65.845 133.974 65.1519 137.727 64.8328 141.545C64.7675 142.334 64.539 142.405 63.8664 142.081C62.552 141.446 61.1994 140.888 59.8608 140.303C59.4158 140.108 59.1826 139.849 59.2106 139.294C59.5231 133.091 60.2395 126.97 62.9102 121.261C64.0623 118.8 65.5978 116.62 68.012 115.19C68.9178 114.654 69.7247 114.523 70.7182 115.125C72.1687 116.003 73.7303 116.697 75.3684 117.533ZM98.2744 75.8052C99.1662 78.4377 100.07 80.9489 101.193 83.378C103.759 88.9313 107.029 93.9873 111.547 98.1627C112.136 98.7075 112.081 98.9929 111.538 99.4808C110.387 100.513 109.253 101.568 108.179 102.678C107.658 103.217 107.345 103.174 106.786 102.716C100.778 97.7942 97.03 91.4761 95.1606 83.9965C94.8462 82.7372 94.6932 81.4387 94.4414 80.1635C94.3182 79.5403 94.4955 79.1075 95.0001 78.6933C96.0925 77.794 97.127 76.8248 98.2744 75.8052ZM71.1799 87.0441C70.9383 88.713 71.3376 90.3828 70.6445 92.0003C70.4756 92.3949 70.6351 93.1851 71.3712 93.8147C72.4728 94.7569 72.8777 96.381 73.1062 97.8791C73.6053 101.154 71.8749 103.298 68.5642 103.627C66.3571 103.847 64.302 103.319 62.2862 102.482C59.5287 101.337 55.2423 98.5219 54.0837 96.9995C57.5912 96.6384 60.9279 95.866 63.9802 94.1366C67.0017 92.4248 69.3553 90.0376 71.1799 87.0441ZM71.248 86.6617L71.3245 86.6243L71.3198 86.7064L71.248 86.6617Z" fill="#FCFCFC"/>
<path d="M41.603 72.4218C41.1142 73.7361 41.6693 74.4311 42.4407 75.03C42.7598 75.2772 43.1086 75.4899 43.4613 75.6895C43.9491 75.9656 44.0256 76.3901 43.8223 76.836C43.603 77.3136 43.1739 77.3948 42.6823 77.2446C40.7532 76.6559 39.3782 74.6158 39.728 72.6018C39.9034 71.5925 39.4957 71.7902 38.9267 72.0057C38.6981 72.0925 38.4827 72.2156 38.2513 72.2874C37.7382 72.4479 37.2504 72.4199 37.0172 71.8527C36.7839 71.2884 37.1142 70.9479 37.5797 70.6699C39.8278 69.3247 42.7719 70.2622 43.854 72.6746C44.103 73.2305 44.27 73.8266 43.6292 74.1811C42.9762 74.543 42.5844 74.1261 42.3092 73.5346C42.1581 73.2109 41.9267 72.9246 41.603 72.4218ZM61.4353 65.5402C61.3784 66.0737 61.5668 66.7902 60.8439 66.9683C60.1555 67.1381 59.8905 66.5066 59.6237 66.0047C59.5304 65.8275 59.4353 65.639 59.4017 65.445C59.2534 64.5877 58.8215 63.3806 59.9334 63.1558C60.9633 62.9487 61.176 64.1838 61.3952 65.0448C61.4344 65.1987 61.4223 65.3666 61.4353 65.5402ZM73.6742 62.1651C73.6388 62.4086 73.7815 62.9385 73.2377 63.1297C72.6724 63.3284 72.3431 62.9207 72.053 62.5243C71.5576 61.848 71.3683 61.0793 71.4308 60.2472C71.4578 59.8815 71.483 59.4944 71.9298 59.3852C72.3254 59.2892 72.6472 59.472 72.886 59.7677C73.4075 60.4114 73.7265 61.1371 73.6742 62.1651ZM63.0976 81.0151C63.0976 81.0151 67.5483 74.0748 73.7554 77.1839L63.0976 81.0151Z" fill="#262222"/>
<path d="M169.349 52.5232C160.548 52.5232 151.746 52.5232 142.945 52.5242C142.619 52.5242 142.29 52.5074 141.969 52.5466C141.497 52.6025 141.231 52.9188 141.227 53.3721C141.222 53.8199 141.471 54.1595 141.932 54.2397C142.249 54.2947 142.581 54.2705 142.907 54.2705C160.55 54.2723 178.194 54.2723 195.838 54.2705C196.164 54.2705 196.5 54.305 196.811 54.2313C197.246 54.1296 197.525 53.8078 197.5 53.3469C197.475 52.8936 197.202 52.5895 196.731 52.5419C196.408 52.5093 196.08 52.5242 195.754 52.5242C186.953 52.5232 178.15 52.5232 169.349 52.5232ZM179.871 45.9457C191.846 45.9457 203.822 45.9457 215.799 45.9448C216.125 45.9448 216.451 45.9569 216.777 45.9355C217.35 45.8982 217.69 45.6081 217.66 45.0017C217.633 44.4653 217.324 44.1976 216.795 44.1808C216.51 44.1715 216.225 44.1733 215.939 44.1733H143.716C143.432 44.1733 143.146 44.1752 142.861 44.1827C142.302 44.1967 142.047 44.5465 142.034 45.0456C142.022 45.5586 142.308 45.8926 142.843 45.9308C143.208 45.9569 143.576 45.9448 143.943 45.9448C155.919 45.9457 167.895 45.9457 179.871 45.9457ZM179.773 81.4237C190.402 81.4237 201.033 81.4293 211.663 81.4219C216.378 81.4181 219.965 79.2959 222.402 75.3509C224.355 72.1886 224.825 68.7631 222.992 65.3751C221.304 62.2538 218.473 60.9767 214.981 60.9776C193.557 60.986 172.134 60.986 150.71 60.9767C147.822 60.9758 145.276 61.9021 143.073 63.7295C140.533 65.8368 138.865 68.4702 138.618 71.8341C138.211 77.4172 141.901 81.4041 147.514 81.4172C158.267 81.4405 169.02 81.4237 179.773 81.4237ZM187.92 26.3289H157.858C154.6 26.3289 151.34 26.2739 148.083 26.3495C144.708 26.4288 141.935 29.4148 142.003 32.7544C142.071 36.0744 144.369 38.0875 148.102 38.0875C174.008 38.0884 199.914 38.0884 225.821 38.0875C226.105 38.0875 226.391 38.0959 226.676 38.0847C230.2 37.9513 232.928 35.0585 232.857 31.5361C232.793 28.3103 230.436 26.3289 226.657 26.3289H187.92ZM144.925 132.927C146.576 131.641 148.082 130.398 149.119 128.705C150.041 127.202 150.368 125.604 149.678 123.932C148.693 121.544 146.578 120.771 143.513 121.641C140.463 122.504 137.783 124.12 135.151 125.824C133.143 127.126 131.243 128.583 129.195 130.166C129.629 125.395 130.043 120.834 130.462 116.272C131.001 110.393 131.533 104.513 132.087 98.6357C132.863 90.4061 133.668 82.1793 134.435 73.9488C135.052 67.3396 135.619 60.7267 136.231 54.1175C136.991 45.9271 137.773 37.7395 138.548 29.5519C139.059 24.1601 139.491 18.7598 140.114 13.381C140.582 9.33063 144.145 6.21586 148.233 6.14777C152.429 6.0778 156.627 6.14777 160.824 6.11325C161.559 6.10765 161.72 6.35859 161.657 7.0321C161.477 8.95843 161.534 10.868 162.467 12.632C164.113 15.7393 166.722 17.4865 170.218 17.5052C182.606 17.5723 194.994 17.5695 207.38 17.5136C212.579 17.4902 217.178 13.0611 217.642 7.85487C217.795 6.13004 217.795 6.13004 219.552 6.13004C223.341 6.13004 227.13 6.12165 230.921 6.13097C235.732 6.1431 238.586 9.41366 238.109 14.2085C237.432 21.0155 236.842 27.8318 236.208 34.6443C235.445 42.8338 234.672 51.0214 233.908 59.2108C233.136 67.4814 232.367 75.753 231.597 84.0245C230.813 92.4574 230.03 100.89 229.251 109.324C228.378 118.771 227.511 128.22 226.639 137.667C225.911 145.534 225.166 153.397 224.464 161.266C224.371 162.318 224.098 162.755 222.892 162.753C191.109 162.714 159.326 162.715 127.543 162.749C126.377 162.75 126.126 162.438 126.257 161.335C126.551 158.861 126.496 158.909 129.178 159.205C136.991 160.068 144.819 160.796 152.688 160.807C155.618 160.811 158.559 160.607 161.345 159.557C165.113 158.137 166.427 155.01 164.833 151.294C164.593 150.734 164.535 150.416 165.151 150.034C166.114 149.437 166.843 148.515 166.946 147.384C167.078 145.94 167.594 144.637 168.016 143.287C169.18 139.561 166.492 133.727 161.16 133.713C156.351 133.702 151.551 133.472 146.753 133.213C146.19 133.182 145.612 133.246 144.925 132.927Z" fill="#FCFCFC"/>
<path d="M172.816 187.159H131.499C129.861 187.16 128.25 187.033 126.719 186.364C123.102 184.784 120.888 181.417 121.107 177.313C121.322 173.29 121.79 169.281 122.156 165.266C122.334 163.319 122.52 161.373 122.728 159.43C122.772 159.021 122.534 158.328 123.429 158.531C124.093 158.683 124.896 158.488 124.739 159.717C124.371 162.58 124.135 165.462 123.867 168.339C123.63 170.893 123.357 173.446 123.212 176.007C122.905 181.415 126.489 185.267 131.911 185.272C159.414 185.296 186.919 185.294 214.422 185.275C219.882 185.271 224.204 181.407 224.747 175.998C225.621 167.288 226.393 158.566 227.209 149.85C228.052 140.85 228.903 131.851 229.74 122.85C230.614 113.443 231.469 104.035 232.344 94.6291C233.181 85.6281 234.039 76.6299 234.875 67.6288C235.749 58.222 236.598 48.8143 237.478 39.4084C238.251 31.1378 239.026 22.8672 239.854 14.6022C240.311 10.034 238.371 6.44071 234.49 4.94535C233.533 4.57688 232.529 4.39777 231.503 4.39591C226.777 4.38845 222.05 4.4183 217.324 4.36979C216.409 4.36046 216.167 4.63938 216.11 5.52558C215.986 7.42672 215.887 9.35305 214.862 11.0676C213.071 14.0639 210.439 15.785 206.961 15.8037C194.86 15.8708 182.758 15.8643 170.656 15.813C166.14 15.7943 163.133 12.4949 163.321 8.00136C163.339 7.59464 163.358 7.18698 163.401 6.78213C163.658 4.39218 163.66 4.39218 161.215 4.39218C157.058 4.39218 152.902 4.39031 148.746 4.39311C143.067 4.39591 138.678 8.50043 138.179 14.146C137.348 23.5547 136.45 32.9587 135.581 42.3646C134.813 50.6772 134.054 58.9907 133.283 67.3033C132.353 77.3164 131.41 87.3296 130.478 97.3437C129.7 105.695 128.929 114.049 128.149 122.401C127.93 124.753 127.627 127.098 127.487 129.454C127.427 130.44 126.917 130.286 126.289 130.285C125.568 130.284 125.395 129.976 125.46 129.307C125.829 125.539 126.166 121.767 126.52 117.997C126.98 113.092 127.446 108.187 127.909 103.281C128.53 96.714 129.156 90.1468 129.769 83.5786C130.204 78.9163 130.619 74.252 131.05 69.5887C131.665 62.9404 132.286 56.292 132.903 49.6426C133.682 41.2498 134.449 32.8552 135.238 24.4633C135.619 20.411 135.875 16.3373 136.484 12.3186C137.347 6.62821 142.381 2.52369 148.176 2.52089C165.941 2.51156 183.706 2.51809 201.471 2.51809C211.658 2.51809 221.844 2.51529 232.031 2.51902C238.457 2.52089 242.565 7.15247 241.932 13.5341C241.192 20.9894 240.569 28.4559 239.87 35.9158C238.927 45.97 237.948 56.0214 237.009 66.0757C236.394 72.6438 235.839 79.2166 235.227 85.7848C234.289 95.84 233.315 105.89 232.377 115.946C231.602 124.257 230.87 132.573 230.098 140.885C229.335 149.115 228.548 157.342 227.772 165.571C227.439 169.098 227.188 172.636 226.763 176.151C225.943 182.947 221.12 187.154 214.255 187.157C200.441 187.164 186.628 187.159 172.816 187.159Z" fill="#F79944"/>
<path d="M170.978 181.429C172.118 181.429 173.257 181.437 174.396 181.428C176.723 181.408 178.47 180.013 178.795 177.692C179.138 175.238 179.362 172.761 179.516 170.288C179.662 167.918 178.04 166.295 175.628 166.267C173.389 166.241 171.15 166.246 168.912 166.266C166.562 166.288 164.704 167.77 164.401 170.076C164.068 172.613 163.861 175.174 163.74 177.732C163.644 179.778 165.266 181.369 167.315 181.423C168.535 181.455 169.757 181.429 170.978 181.429ZM175.105 164.468C190.991 164.468 206.874 164.476 222.759 164.445C223.779 164.443 224.175 164.576 224.039 165.743C223.625 169.3 223.436 172.884 222.977 176.433C222.464 180.411 218.711 183.495 214.555 183.518C210.157 183.542 205.758 183.524 201.359 183.524C178.387 183.524 155.416 183.474 132.446 183.564C127.597 183.582 124.365 180.103 124.935 175.514C125.361 172.083 125.629 168.631 125.903 165.183C125.961 164.446 126.318 164.46 126.842 164.462C130.14 164.472 133.44 164.468 136.738 164.468H175.105ZM132.722 32.4858C132.565 32.4774 132.407 32.4699 132.25 32.4624C132.504 32.0044 132.405 31.5184 132.382 31.0305C132.168 26.5902 132.045 22.1536 133.029 17.772C133.278 16.6666 133.602 15.5901 134.408 14.6647C133.846 20.605 133.284 26.5454 132.722 32.4858Z" fill="#FCFCFC"/>
<path d="M148.678 31.0622C148.605 30.4969 148.309 30.0995 147.761 30.106C147.043 30.1144 146.539 30.523 146.463 31.2674C146.4 31.8933 146.741 32.2693 147.384 32.2562C148.155 32.2404 148.477 31.7012 148.678 31.0622ZM144.756 30.0155C143.608 31.2404 143.458 32.6732 144.057 34.1536C144.666 35.6583 145.923 36.3318 147.511 36.3551C148.801 36.3747 150.092 36.3262 151.383 36.3085C151.748 36.3253 152.113 36.357 152.479 36.357C176.996 36.3598 201.514 36.3598 226.031 36.3589C226.275 36.3589 226.522 36.3701 226.764 36.3495C229.287 36.1369 231.252 33.9447 231.121 31.4969C231.002 29.2954 229.437 28.1088 226.646 28.1088H147.83C149.688 28.7534 150.719 29.7749 150.332 31.2245C149.964 32.606 150.561 33.3262 151.397 34.1238C152.017 34.7152 152.218 35.3467 151.38 35.9466C150.287 36.0044 149.963 34.9997 149.311 34.4475C148.997 34.1807 148.843 33.801 148.234 33.8663C145.409 34.1686 144.415 33.0286 144.868 30.1368C144.897 30.0528 144.966 29.9073 144.948 29.8952C144.825 29.815 144.781 29.9101 144.756 30.0155ZM187.919 26.3289H226.656C230.435 26.3289 232.792 28.3103 232.857 31.5361C232.928 35.0585 230.198 37.9512 226.676 38.0846C226.391 38.0958 226.106 38.0874 225.82 38.0874C199.914 38.0884 174.007 38.0884 148.101 38.0874C144.369 38.0874 142.07 36.0744 142.002 32.7544C141.935 29.4148 144.707 26.4287 148.082 26.3494C151.339 26.2739 154.599 26.3289 157.858 26.3289H187.919ZM182.823 62.7481C172.152 62.7481 161.482 62.7444 150.81 62.7491C146.526 62.7509 143.376 64.7808 141.414 68.4646C138.373 74.1746 141.747 79.7427 148.081 79.7017C169.299 79.5636 190.519 79.655 211.739 79.6448C216.112 79.6429 219.308 77.5636 221.275 73.752C224.186 68.1092 220.778 62.583 214.59 62.695C204.004 62.8862 193.412 62.7481 182.823 62.7481ZM179.772 81.4237C169.019 81.4237 158.266 81.4405 147.514 81.4172C141.901 81.4041 138.21 77.4171 138.619 71.835C138.864 68.4702 140.532 65.8368 143.072 63.7295C145.275 61.9021 147.821 60.9757 150.709 60.9767C172.133 60.986 193.557 60.986 214.98 60.9776C218.472 60.9767 221.303 62.2537 222.992 65.375C224.825 68.7631 224.355 72.1885 222.401 75.3509C219.965 79.2968 216.377 81.4181 211.662 81.4218C201.033 81.4293 190.402 81.4246 179.772 81.4237ZM179.87 45.9457C167.894 45.9457 155.918 45.9457 143.942 45.9448C143.576 45.9448 143.208 45.9569 142.843 45.9308C142.307 45.8926 142.022 45.5586 142.034 45.0455C142.046 44.5465 142.302 44.1966 142.86 44.1827C143.146 44.1752 143.43 44.1733 143.716 44.1733H215.939C216.224 44.1733 216.509 44.1715 216.794 44.1808C217.324 44.1976 217.633 44.4653 217.659 45.0017C217.689 45.608 217.349 45.8982 216.775 45.9355C216.452 45.9569 216.124 45.9457 215.799 45.9457H179.87ZM169.348 52.5232C178.15 52.5232 186.952 52.5232 195.754 52.5242C196.079 52.5242 196.408 52.5092 196.73 52.5419C197.201 52.5895 197.475 52.8936 197.5 53.3469C197.524 53.8078 197.245 54.1296 196.811 54.2313C196.5 54.305 196.163 54.2704 195.838 54.2704C178.194 54.2723 160.55 54.2723 142.906 54.2704C142.58 54.2704 142.248 54.2947 141.931 54.2397C141.47 54.1594 141.221 53.8199 141.226 53.3721C141.231 52.9188 141.497 52.6025 141.969 52.5465C142.289 52.5074 142.619 52.5242 142.944 52.5242C151.746 52.5232 160.547 52.5232 169.348 52.5232ZM172.233 168.038H169.06C169.019 168.038 168.978 168.037 168.937 168.039C167.343 168.086 166.295 168.946 166.123 170.506C165.868 172.809 165.672 175.12 165.503 177.431C165.403 178.789 166.146 179.655 167.481 179.684C169.839 179.734 172.2 179.734 174.558 179.678C175.891 179.649 176.915 178.725 177.063 177.449C177.34 175.066 177.579 172.678 177.763 170.287C177.87 168.889 177.072 168.084 175.651 168.046C174.513 168.014 173.373 168.039 172.233 168.038ZM170.977 181.428C169.756 181.428 168.535 181.455 167.315 181.423C165.265 181.369 163.643 179.778 163.74 177.732C163.861 175.174 164.068 172.613 164.401 170.076C164.704 167.769 166.561 166.287 168.912 166.266C171.15 166.245 173.389 166.241 175.627 166.267C178.04 166.295 179.662 167.918 179.515 170.288C179.363 172.761 179.138 175.238 178.794 177.692C178.47 180.013 176.723 181.408 174.396 181.428C173.256 181.437 172.117 181.428 170.977 181.428Z" fill="#262222"/>
<path d="M151.381 35.9465C152.218 35.3467 152.019 34.7152 151.397 34.1238C150.561 33.3262 149.963 32.606 150.333 31.2245C150.719 29.7748 149.688 28.7534 147.83 28.1088H226.646C229.436 28.1088 231.003 29.2953 231.121 31.4969C231.253 33.9446 229.287 36.1368 226.765 36.3495C226.522 36.37 226.276 36.3589 226.032 36.3589C201.514 36.3598 176.996 36.3598 152.479 36.357C152.114 36.357 151.748 36.3253 151.383 36.3085C151.382 36.1872 151.381 36.0669 151.381 35.9465Z" fill="#F79944"/>
<path d="M151.381 35.9466C151.381 36.0669 151.382 36.1873 151.383 36.3085C150.092 36.3262 148.801 36.3748 147.511 36.3561C145.923 36.3318 144.666 35.6583 144.058 34.1536C143.458 32.6732 143.609 31.2404 144.756 30.0165C144.793 30.0566 144.831 30.0967 144.868 30.1377C144.416 33.0286 145.409 34.1686 148.234 33.8663C148.843 33.801 148.997 34.1807 149.311 34.4475C149.963 34.9997 150.287 36.0044 151.381 35.9466Z" fill="#F79944"/>
<path d="M148.678 31.0622C148.478 31.7012 148.156 32.2404 147.384 32.2562C146.742 32.2693 146.4 31.8934 146.464 31.2674C146.539 30.523 147.044 30.1144 147.761 30.106C148.31 30.0995 148.605 30.4969 148.678 31.0622Z" fill="#FCFCFC"/>
<path d="M144.756 30.0155C144.781 29.9101 144.826 29.8149 144.948 29.8951C144.967 29.9073 144.897 30.0528 144.868 30.1368C144.831 30.0966 144.793 30.0565 144.756 30.0155ZM182.822 62.7481C193.412 62.7481 204.004 62.8862 214.59 62.6949C220.778 62.583 224.186 68.1092 221.275 73.7519C219.308 77.5636 216.112 79.6429 211.739 79.6447C190.519 79.655 169.299 79.5636 148.081 79.7016C141.747 79.7427 138.373 74.1745 141.413 68.4646C143.376 64.7808 146.526 62.7509 150.81 62.749C161.482 62.7444 172.152 62.7481 182.822 62.7481ZM170.42 176.944C170.42 177.107 170.432 177.27 170.418 177.431C170.369 178.052 170.455 178.649 171.21 178.684C171.945 178.72 172.127 178.149 172.161 177.525C172.172 177.323 172.185 177.12 172.206 176.917C172.429 174.74 172.43 174.74 174.661 174.731C174.824 174.73 174.987 174.732 175.15 174.73C175.791 174.718 176.471 174.647 176.49 173.836C176.511 173.012 175.837 172.923 175.191 172.917C174.581 172.911 173.969 172.888 173.361 172.921C172.762 172.954 172.564 172.715 172.646 172.132C172.749 171.408 172.821 170.679 172.87 169.95C172.909 169.376 172.618 168.996 172.038 168.956C171.507 168.918 171.221 169.242 171.156 169.761C171.083 170.367 170.908 170.981 170.96 171.576C171.065 172.773 170.493 173.029 169.454 172.929C168.812 172.868 168.152 172.9 167.509 172.973C167.078 173.021 166.772 173.306 166.771 173.801C166.77 174.28 167.026 174.565 167.474 174.66C167.75 174.718 168.039 174.722 168.321 174.729C170.567 174.773 170.567 174.771 170.42 176.944ZM172.233 168.039C173.372 168.039 174.513 168.014 175.651 168.046C177.072 168.084 177.87 168.889 177.763 170.287C177.579 172.678 177.34 175.066 177.063 177.449C176.915 178.725 175.891 179.649 174.558 179.678C172.2 179.733 169.839 179.733 167.48 179.684C166.146 179.655 165.403 178.788 165.503 177.431C165.672 175.12 165.868 172.809 166.123 170.506C166.295 168.946 167.343 168.086 168.937 168.039C168.978 168.037 169.019 168.038 169.06 168.038C170.117 168.038 171.175 168.038 172.233 168.039Z" fill="#F79944"/>
<path d="M170.42 176.944C170.567 174.771 170.567 174.773 168.321 174.729C168.039 174.722 167.75 174.718 167.474 174.66C167.026 174.566 166.77 174.28 166.771 173.801C166.772 173.306 167.078 173.021 167.509 172.973C168.152 172.9 168.812 172.868 169.454 172.929C170.493 173.029 171.065 172.774 170.96 171.576C170.908 170.981 171.083 170.367 171.156 169.761C171.221 169.242 171.507 168.918 172.038 168.956C172.618 168.996 172.909 169.376 172.87 169.95C172.821 170.679 172.749 171.408 172.646 172.132C172.564 172.715 172.762 172.954 173.361 172.921C173.969 172.888 174.581 172.911 175.191 172.917C175.837 172.923 176.511 173.012 176.49 173.836C176.471 174.647 175.791 174.718 175.15 174.73C174.987 174.732 174.824 174.73 174.661 174.731C172.43 174.74 172.429 174.74 172.206 176.917C172.185 177.12 172.172 177.323 172.161 177.525C172.127 178.149 171.945 178.72 171.209 178.684C170.455 178.649 170.369 178.052 170.418 177.431C170.431 177.27 170.42 177.107 170.42 176.944Z" fill="#262222"/>
<path d="M163.89 66.1001L163.487 68.4471H159.245L158.913 70.3128H162.025L161.637 72.5554H158.521L157.782 76.7084H154.819L156.7 66.1001H163.89Z" fill="black"/>
<path d="M163.531 72.4808C163.69 71.6076 163.985 70.8455 164.416 70.1934C164.849 69.5423 165.368 69.0404 165.976 68.6897C166.582 68.3389 167.222 68.1636 167.893 68.1636C168.476 68.1636 168.957 68.2792 169.337 68.5106C169.718 68.7401 169.984 69.0507 170.136 69.4434L170.345 68.2681H173.296L171.804 76.7084H168.856L169.069 75.5368C168.778 75.9276 168.395 76.2383 167.923 76.4696C167.453 76.6991 166.932 76.8129 166.36 76.8129C165.476 76.8129 164.768 76.52 164.237 75.9323C163.707 75.3456 163.442 74.5461 163.442 73.533C163.442 73.2028 163.472 72.8521 163.531 72.4808ZM169.61 72.4808C169.64 72.3315 169.655 72.1916 169.655 72.0591C169.655 71.6394 169.536 71.3129 169.3 71.0815C169.063 70.8502 168.76 70.7345 168.39 70.7345C167.949 70.7345 167.552 70.8875 167.199 71.1935C166.849 71.4994 166.628 71.9285 166.539 72.4808C166.509 72.63 166.494 72.7756 166.494 72.9174C166.494 73.3381 166.612 73.6636 166.849 73.895C167.085 74.1263 167.388 74.242 167.759 74.242C168.199 74.242 168.595 74.0871 168.946 73.7756C169.296 73.4649 169.518 73.033 169.61 72.4808Z" fill="black"/>
<path d="M176.62 67.4845C176.158 67.4845 175.793 67.3707 175.527 67.1412C175.263 66.9099 175.132 66.6141 175.132 66.2531C175.132 65.9322 175.218 65.6337 175.393 65.3576C175.569 65.0815 175.811 64.8613 176.117 64.6971C176.423 64.5311 176.766 64.4471 177.147 64.4471C177.606 64.4471 177.969 64.5656 178.236 64.8016C178.502 65.0358 178.635 65.3389 178.635 65.7121C178.635 66.033 178.547 66.3296 178.37 66.6002C178.196 66.8688 177.953 67.0843 177.643 67.2457C177.331 67.4052 176.991 67.4845 176.62 67.4845ZM177.945 68.2681L176.452 76.7085H173.49L174.993 68.2681H177.945Z" fill="black"/>
<path d="M183.06 65.574L181.086 76.7084H178.124L180.094 65.574H183.06Z" fill="black"/>
<path d="M188.082 68.1636C189.187 68.1636 190.062 68.4602 190.709 69.0516C191.356 69.644 191.679 70.4509 191.679 71.4733C191.679 71.8147 191.654 72.1151 191.605 72.3763C191.545 72.6972 191.485 72.9276 191.426 73.0666H185.843C185.833 73.1263 185.829 73.2177 185.829 73.339C185.829 73.7196 185.92 74.0013 186.105 74.1823C186.291 74.3614 186.539 74.451 186.851 74.451C187.341 74.451 187.732 74.2308 188.023 73.7905H191.153C190.922 74.3726 190.577 74.8931 190.12 75.3502C189.664 75.8054 189.128 76.1637 188.511 76.4249C187.894 76.6842 187.24 76.8129 186.549 76.8129C185.446 76.8129 184.569 76.5125 183.918 75.9099C183.266 75.3082 182.94 74.4808 182.94 73.4286C182.94 73.1282 182.97 72.8119 183.03 72.4808C183.189 71.5983 183.506 70.8334 183.981 70.186C184.459 69.5395 185.051 69.0404 185.758 68.6897C186.467 68.3389 187.241 68.1636 188.082 68.1636ZM188.702 71.742C188.721 71.603 188.732 71.5134 188.732 71.4733C188.732 71.1524 188.631 70.9099 188.429 70.7457C188.23 70.5796 187.97 70.4957 187.649 70.4957C187.276 70.4957 186.954 70.602 186.683 70.8129C186.414 71.0218 186.214 71.3315 186.082 71.742H188.702Z" fill="black"/>
<path d="M192.297 72.4808C192.456 71.6076 192.75 70.8455 193.181 70.1934C193.614 69.5423 194.137 69.0404 194.749 68.6897C195.361 68.3389 196.002 68.1636 196.674 68.1636C197.216 68.1636 197.68 68.2774 198.066 68.5031C198.451 68.727 198.73 69.0358 198.902 69.4285L199.577 65.574H202.543L200.57 76.7084H197.607L197.834 75.5368C197.533 75.9276 197.152 76.2383 196.689 76.4696C196.228 76.6991 195.712 76.8129 195.14 76.8129C194.257 76.8129 193.547 76.52 193.01 75.9323C192.474 75.3455 192.208 74.5461 192.208 73.533C192.208 73.2028 192.237 72.852 192.297 72.4808ZM198.375 72.4808C198.405 72.3315 198.42 72.1916 198.42 72.0591C198.42 71.6393 198.302 71.3128 198.066 71.0815C197.829 70.8501 197.526 70.7345 197.155 70.7345C196.715 70.7345 196.318 70.8875 195.965 71.1934C195.614 71.4994 195.394 71.9285 195.305 72.4808C195.275 72.63 195.26 72.7755 195.26 72.9173C195.26 73.338 195.377 73.6636 195.614 73.895C195.85 74.1263 196.153 74.242 196.525 74.242C196.965 74.242 197.361 74.0871 197.711 73.7756C198.062 73.4649 198.283 73.033 198.375 72.4808Z" fill="black"/>
<path d="M208.17 65.5591L206.573 72.7383H204.047L204.965 65.5591H208.17ZM204.588 76.8279C204.127 76.8279 203.764 76.7131 203.498 76.4846C203.232 76.2532 203.099 75.9528 203.099 75.5816C203.099 75.2607 203.186 74.9622 203.36 74.686C203.537 74.4099 203.78 74.1898 204.092 74.0256C204.402 73.8595 204.748 73.7756 205.129 73.7756C205.581 73.7756 205.94 73.8941 206.204 74.1301C206.469 74.3642 206.603 74.6665 206.603 75.0368C206.603 75.5396 206.41 75.964 206.025 76.3092C205.638 76.6553 205.16 76.8279 204.588 76.8279Z" fill="black"/>
<path d="M162.799 129.385L204.751 90.4276M202.626 131.448L164.923 88.3651" stroke="#262222" stroke-width="5" stroke-miterlimit="10" stroke-linecap="round" stroke-linejoin="round"/>
</svg>
